<?xml version="1.0" encoding="UTF-8" standalone="no"?>
<svg xmlns:rdf="http://www.w3.org/1999/02/22-rdf-syntax-ns#" xmlns="http://www.w3.org/2000/svg" height="144.63mm" width="487.24mm" version="1.1" xmlns:cc="http://creativecommons.org/ns#" xmlns:dc="http://purl.org/dc/elements/1.1/" viewBox="0 0 1726.4331 512.47598">
<g transform="translate(454.65 -321.84)">
<g transform="translate(-479.84 -915.29)">
<path fill="#a90000" d="m416.93 1749.3c-54.861-3.8566-98.892-45.859-103.82-99.037-0.17904-1.9325-0.38904-3.9521-0.46665-4.4882l-0.14115-0.9746-119.45-0.075-119.45-0.075-8.1439-34.5-23.844-101.01c-13.928-59.006-15.765-66.521-16.279-66.6-0.45948-0.07 0.07343-0.785 2.5717-3.4476 1.7332-1.8472 3.1313-3.5497 3.1069-3.7833-0.02442-0.2337 7.3203-8.1048 16.322-17.492 20.911-21.807 19.714-20.534 100.93-107.31l68.7-73.403h414.23 414.23l122.75 97.086 122.75 97.086 208.07 19.452c114.44 10.698 208.91 19.54 209.94 19.649l1.875 0.1971v62.065 62.065h20.4 20.4v25.05 25.05h-172.96c-138.1 0-172.98 0.075-173.09 0.375-0.07 0.2062-0.2703 1.9275-0.4458 3.825-4.8145 52.056-45.771 93.767-97.959 99.764-61.449 7.0594-117.17-38.162-122.93-99.764l-0.3785-4.05-324.8-0.075-324.8-0.075-0.16398 1.5751c-0.0902 0.8664-0.31218 2.9927-0.49332 4.7252-6.0311 57.683-58.994 102.26-116.69 98.2zm19.022-26.194c57.955-8.8137 90.025-71.274 63.465-123.61-27.87-54.912-104.41-62.633-142.76-14.4-42.621 53.612-8.49 132.56 59.97 138.71 3.6808 0.3309 15.285-0.095 19.322-0.7085zm867.48 0.4548c71.477-7.6336 102.39-94.381 51.756-145.24-47.484-47.694-128.9-24.335-143.87 41.278-12.95 56.757 34.342 110.13 92.115 103.96zm396.9-201.16v-34.5h-21.6-21.6v34.5 34.5h21.6 21.6v-34.5zm-1147-179.92-0.0755-83.625h-159.29-159.29l-74.205 81.9c-40.813 45.045-74.885 82.676-75.715 83.625l-1.5103 1.725h235.08 235.08l-0.0755-83.625zm266.7 0-0.0755-83.625h-116.55-116.55l-0.0755 83.625-0.0755 83.625h116.7 116.7l-0.0755-83.625zm453.36 83.208c-0.3786-0.359-209.72-162.83-213.71-165.87l-1.4681-1.1156h-100.91-100.91v83.7 83.7h208.71c178.08 0 208.65-0.061 208.28-0.4165z"/>
<path fill="#010000" d="m416.93 1749.3c-96.646-6.794-139.89-123.18-70.762-190.45 61.778-60.121 166.25-29.138 185.5 55.012 16.368 71.563-42.072 140.55-114.74 135.44zm19.022-26.194c57.955-8.8137 90.025-71.274 63.465-123.61-27.87-54.912-104.41-62.633-142.76-14.4-42.621 53.612-8.49 132.56 59.97 138.71 3.6808 0.3309 15.285-0.095 19.322-0.7085zm850.38 26.089c-94.471-7.8639-136.96-122.25-70.21-189.01 59.746-59.748 162.02-33.493 185.26 47.56 21.235 74.037-38.762 147.8-115.05 141.45zm17.1-25.634c71.477-7.6336 102.39-94.381 51.756-145.24-47.484-47.694-128.9-24.335-143.87 41.278-12.95 56.757 34.342 110.13 92.115 103.96zm-1272.5-288.4c0.055-0.1501 7.5242-8.0139 16.598-17.475 9.074-9.4612 19.211-20.037 22.527-23.502s36.239-37.755 73.163-76.2l67.134-69.9 136.54-0.15c75.096-0.082 262.79-0.1113 417.1-0.064l280.56 0.086 8.2656 6.3042c4.5461 3.4673 8.2656 6.3711 8.2656 6.4529 0 0.082-0.6269-0.33-1.3931-0.915l-1.3931-1.0638h-100.91-100.91v83.7 83.7h208.71c178.09 0 208.65-0.061 208.28-0.4165-0.2416-0.2292-47.892-37.231-105.89-82.227s-105.65-82.022-105.9-82.281c-0.7602-0.7951 226.46 172.61 227.54 173.66 0.5808 0.5584-10.927 0.5688-628.9 0.5688-377.9 0-629.45-0.1091-629.39-0.2729zm522.48-92.652-0.0755-83.625h-159.29-159.29l-74.205 81.9c-40.813 45.045-74.885 82.676-75.715 83.625l-1.5103 1.725h235.08 235.08l-0.0755-83.625zm266.7 0-0.0755-83.625h-116.55-116.55l-0.0755 83.625-0.0755 83.625h116.7 116.7l-0.0755-83.625z"/>
</g>
</g>
</svg>
